<mxfile host="app.diagrams.net" agent="Mozilla/5.0 (Macintosh; Intel Mac OS X 10_15_7) AppleWebKit/537.36 (KHTML, like Gecko) Chrome/130.0.0.0 Safari/537.36" version="24.8.4">
  <diagram id="53IQXVl9icCSp_Kw3Ib1" name="Page-1">
    <mxGraphModel dx="2248" dy="1615" grid="1" gridSize="10" guides="1" tooltips="1" connect="1" arrows="1" fold="1" page="1" pageScale="1" pageWidth="1100" pageHeight="850" math="0" shadow="0">
      <root>
        <mxCell id="0" />
        <mxCell id="1" parent="0" />
        <mxCell id="y23w7bRWC7Pf37eIef_1-1" value="" style="rounded=0;whiteSpace=wrap;html=1;sketch=1;curveFitting=1;jiggle=2;strokeWidth=5;" parent="1" vertex="1">
          <mxGeometry x="-120" y="-100" width="1220" height="690" as="geometry" />
        </mxCell>
        <mxCell id="HIq26qkVBO2vfs1bq9Pp-3" value="&lt;b&gt;&lt;font style=&quot;font-size: 32px;&quot;&gt;main&lt;/font&gt;&lt;/b&gt;" style="text;html=1;align=left;verticalAlign=middle;resizable=0;points=[];autosize=1;strokeColor=none;fillColor=none;sketch=1;curveFitting=1;jiggle=2;fontFamily=Courier New;" parent="1" vertex="1">
          <mxGeometry x="-60" y="204.5" width="100" height="50" as="geometry" />
        </mxCell>
        <mxCell id="HIq26qkVBO2vfs1bq9Pp-17" value="" style="endArrow=block;html=1;rounded=0;strokeWidth=5;endFill=1;exitX=0.974;exitY=0.468;exitDx=0;exitDy=0;exitPerimeter=0;entryX=0;entryY=0.5;entryDx=0;entryDy=0;sketch=1;curveFitting=1;jiggle=2;" parent="1" source="HIq26qkVBO2vfs1bq9Pp-3" edge="1">
          <mxGeometry width="50" height="50" relative="1" as="geometry">
            <mxPoint x="100" y="229.41" as="sourcePoint" />
            <mxPoint x="199.9999999999941" y="229.5" as="targetPoint" />
          </mxGeometry>
        </mxCell>
        <mxCell id="HIq26qkVBO2vfs1bq9Pp-2" value="" style="ellipse;whiteSpace=wrap;html=1;aspect=fixed;strokeWidth=5;sketch=1;curveFitting=1;jiggle=2;" parent="1" vertex="1">
          <mxGeometry x="200" y="190" width="80" height="79" as="geometry" />
        </mxCell>
        <mxCell id="HIq26qkVBO2vfs1bq9Pp-33" style="edgeStyle=orthogonalEdgeStyle;rounded=0;orthogonalLoop=1;jettySize=auto;html=1;exitX=1;exitY=0.5;exitDx=0;exitDy=0;strokeWidth=5;endArrow=none;endFill=0;sketch=1;curveFitting=1;jiggle=2;strokeColor=#CCCCCC;" parent="1" source="HIq26qkVBO2vfs1bq9Pp-48" edge="1">
          <mxGeometry relative="1" as="geometry">
            <mxPoint x="1040" y="230" as="targetPoint" />
            <mxPoint x="1180.000000000006" y="230" as="sourcePoint" />
          </mxGeometry>
        </mxCell>
        <mxCell id="HIq26qkVBO2vfs1bq9Pp-49" value="" style="edgeStyle=orthogonalEdgeStyle;rounded=0;orthogonalLoop=1;jettySize=auto;html=1;exitX=1;exitY=0.5;exitDx=0;exitDy=0;entryX=0;entryY=0.5;entryDx=0;entryDy=0;strokeWidth=5;endArrow=block;endFill=1;sketch=1;curveFitting=1;jiggle=2;" parent="1" target="SwvKhfasuyzVQ3ri1iTQ-1" edge="1">
          <mxGeometry relative="1" as="geometry">
            <mxPoint x="280.0000000000059" y="229.5" as="sourcePoint" />
            <mxPoint x="759.9999999999727" y="230" as="targetPoint" />
          </mxGeometry>
        </mxCell>
        <mxCell id="xTmbXcm-KiLkeivZunYo-2" value="" style="endArrow=none;html=1;rounded=0;strokeWidth=5;endFill=0;sketch=1;curveFitting=1;jiggle=2;" parent="1" target="HIq26qkVBO2vfs1bq9Pp-48" edge="1">
          <mxGeometry width="50" height="50" relative="1" as="geometry">
            <mxPoint x="839.9995912543927" y="230.17856960381437" as="sourcePoint" />
            <mxPoint x="1120" y="230" as="targetPoint" />
          </mxGeometry>
        </mxCell>
        <mxCell id="xTmbXcm-KiLkeivZunYo-6" style="edgeStyle=orthogonalEdgeStyle;rounded=0;orthogonalLoop=1;jettySize=auto;html=1;strokeWidth=5;endArrow=block;endFill=1;sketch=1;curveFitting=1;jiggle=2;curved=1;exitX=0.5;exitY=0;exitDx=0;exitDy=0;" parent="1" source="SwvKhfasuyzVQ3ri1iTQ-2" edge="1">
          <mxGeometry relative="1" as="geometry">
            <mxPoint x="900" y="80" as="targetPoint" />
            <mxPoint x="780" y="190" as="sourcePoint" />
          </mxGeometry>
        </mxCell>
        <mxCell id="HIq26qkVBO2vfs1bq9Pp-48" value="" style="ellipse;whiteSpace=wrap;html=1;aspect=fixed;strokeWidth=5;sketch=1;curveFitting=1;jiggle=2;" parent="1" vertex="1">
          <mxGeometry x="840" y="190" width="80" height="79" as="geometry" />
        </mxCell>
        <mxCell id="xTmbXcm-KiLkeivZunYo-4" value="&lt;p style=&quot;line-height: 120%; font-size: 20px;&quot;&gt;&lt;span style=&quot;font-size: 20px;&quot;&gt;&lt;b style=&quot;font-size: 20px;&quot;&gt;devs commit directly &lt;br&gt;to main&lt;/b&gt;&lt;/span&gt;&lt;/p&gt;" style="shape=note;whiteSpace=wrap;html=1;backgroundOutline=1;darkOpacity=0.05;strokeWidth=3;labelPosition=center;verticalLabelPosition=middle;align=center;verticalAlign=bottom;sketch=1;curveFitting=1;jiggle=2;fontSize=20;" parent="1" vertex="1">
          <mxGeometry x="340" y="350" width="120" height="130" as="geometry" />
        </mxCell>
        <mxCell id="xTmbXcm-KiLkeivZunYo-5" style="rounded=0;orthogonalLoop=1;jettySize=auto;html=1;endArrow=none;endFill=0;dashed=1;dashPattern=1 1;strokeWidth=3;sketch=1;curveFitting=1;jiggle=2;strokeColor=#000000;entryX=0.5;entryY=0;entryDx=0;entryDy=0;entryPerimeter=0;exitX=0.5;exitY=1;exitDx=0;exitDy=0;" parent="1" source="HIq26qkVBO2vfs1bq9Pp-2" target="xTmbXcm-KiLkeivZunYo-4" edge="1">
          <mxGeometry relative="1" as="geometry">
            <mxPoint x="820" y="320" as="sourcePoint" />
            <mxPoint x="310" y="330" as="targetPoint" />
          </mxGeometry>
        </mxCell>
        <mxCell id="xTmbXcm-KiLkeivZunYo-8" value="&lt;p style=&quot;line-height: 120%; font-size: 20px;&quot;&gt;&lt;span style=&quot;font-size: 20px;&quot;&gt;&lt;b style=&quot;font-size: 20px;&quot;&gt;release directly from main&lt;/b&gt;&lt;/span&gt;&lt;/p&gt;" style="shape=note;whiteSpace=wrap;html=1;backgroundOutline=1;darkOpacity=0.05;strokeWidth=3;labelPosition=center;verticalLabelPosition=middle;align=center;verticalAlign=bottom;sketch=1;curveFitting=1;jiggle=2;fillColor=#97D077;gradientColor=#97D077;fontSize=20;" parent="1" vertex="1">
          <mxGeometry x="760" y="-40" width="120" height="130" as="geometry" />
        </mxCell>
        <mxCell id="xTmbXcm-KiLkeivZunYo-9" style="rounded=0;orthogonalLoop=1;jettySize=auto;html=1;endArrow=none;endFill=0;dashed=1;dashPattern=1 1;strokeWidth=3;sketch=1;curveFitting=1;jiggle=2;strokeColor=#000000;exitX=0.5;exitY=1;exitDx=0;exitDy=0;exitPerimeter=0;" parent="1" source="xTmbXcm-KiLkeivZunYo-8" edge="1">
          <mxGeometry relative="1" as="geometry">
            <mxPoint x="870" y="169.5" as="sourcePoint" />
            <mxPoint x="830" y="130" as="targetPoint" />
          </mxGeometry>
        </mxCell>
        <mxCell id="SwvKhfasuyzVQ3ri1iTQ-3" style="edgeStyle=orthogonalEdgeStyle;rounded=0;orthogonalLoop=1;jettySize=auto;html=1;exitX=1;exitY=0.5;exitDx=0;exitDy=0;entryX=0;entryY=0.5;entryDx=0;entryDy=0;strokeWidth=5;sketch=1;curveFitting=1;jiggle=2;curved=1;" parent="1" source="SwvKhfasuyzVQ3ri1iTQ-1" target="SwvKhfasuyzVQ3ri1iTQ-2" edge="1">
          <mxGeometry relative="1" as="geometry" />
        </mxCell>
        <mxCell id="SwvKhfasuyzVQ3ri1iTQ-1" value="" style="ellipse;whiteSpace=wrap;html=1;aspect=fixed;strokeWidth=5;sketch=1;curveFitting=1;jiggle=2;" parent="1" vertex="1">
          <mxGeometry x="420" y="190" width="80" height="79" as="geometry" />
        </mxCell>
        <mxCell id="SwvKhfasuyzVQ3ri1iTQ-4" style="edgeStyle=orthogonalEdgeStyle;rounded=0;orthogonalLoop=1;jettySize=auto;html=1;exitX=1;exitY=0.5;exitDx=0;exitDy=0;strokeWidth=5;curved=1;sketch=1;curveFitting=1;jiggle=2;" parent="1" source="SwvKhfasuyzVQ3ri1iTQ-2" target="HIq26qkVBO2vfs1bq9Pp-48" edge="1">
          <mxGeometry relative="1" as="geometry" />
        </mxCell>
        <mxCell id="SwvKhfasuyzVQ3ri1iTQ-2" value="" style="ellipse;whiteSpace=wrap;html=1;aspect=fixed;strokeWidth=5;sketch=1;curveFitting=1;jiggle=2;" parent="1" vertex="1">
          <mxGeometry x="630" y="190" width="80" height="79" as="geometry" />
        </mxCell>
        <mxCell id="SwvKhfasuyzVQ3ri1iTQ-5" style="rounded=0;orthogonalLoop=1;jettySize=auto;html=1;endArrow=none;endFill=0;dashed=1;dashPattern=1 1;strokeWidth=3;sketch=1;curveFitting=1;jiggle=2;strokeColor=#000000;exitX=0.5;exitY=1;exitDx=0;exitDy=0;" parent="1" source="SwvKhfasuyzVQ3ri1iTQ-1" edge="1">
          <mxGeometry relative="1" as="geometry">
            <mxPoint x="370" y="279" as="sourcePoint" />
            <mxPoint x="400" y="350" as="targetPoint" />
          </mxGeometry>
        </mxCell>
        <mxCell id="SwvKhfasuyzVQ3ri1iTQ-6" style="rounded=0;orthogonalLoop=1;jettySize=auto;html=1;endArrow=none;endFill=0;dashed=1;dashPattern=1 1;strokeWidth=3;sketch=1;curveFitting=1;jiggle=2;strokeColor=#000000;exitX=0.5;exitY=1;exitDx=0;exitDy=0;" parent="1" source="SwvKhfasuyzVQ3ri1iTQ-2" edge="1">
          <mxGeometry relative="1" as="geometry">
            <mxPoint x="470" y="279" as="sourcePoint" />
            <mxPoint x="400" y="350" as="targetPoint" />
          </mxGeometry>
        </mxCell>
        <mxCell id="SwvKhfasuyzVQ3ri1iTQ-7" style="rounded=0;orthogonalLoop=1;jettySize=auto;html=1;endArrow=none;endFill=0;dashed=1;dashPattern=1 1;strokeWidth=3;sketch=1;curveFitting=1;jiggle=2;strokeColor=#000000;exitX=0.5;exitY=1;exitDx=0;exitDy=0;" parent="1" source="HIq26qkVBO2vfs1bq9Pp-48" edge="1">
          <mxGeometry relative="1" as="geometry">
            <mxPoint x="680" y="279" as="sourcePoint" />
            <mxPoint x="400" y="350" as="targetPoint" />
          </mxGeometry>
        </mxCell>
      </root>
    </mxGraphModel>
  </diagram>
</mxfile>
